<svg width="133" height="47" viewBox="0 0 133 47" fill="none" xmlns="http://www.w3.org/2000/svg">
<g clip-path="url(#clip0_165_139)">
<path d="M116.269 29.0802L123.151 20.1665L122.991 23.5949L116.429 14.6548H123.231L126.459 19.4281L123.951 19.6127L127.499 14.6548H133.822L127.233 23.3048V20.0083L133.955 29.0802H127.046L123.711 23.9904L126.246 24.3333L122.804 29.0802H116.269Z" fill="#58C19B"/>
<path d="M98.953 29.0802V10.62H107.943C109.686 10.62 111.188 10.9013 112.451 11.4638C113.731 12.0264 114.718 12.8352 115.412 13.89C116.106 14.9273 116.452 16.158 116.452 17.5821C116.452 19.0062 116.106 20.2368 115.412 21.2741C114.718 22.2938 113.731 23.0762 112.451 23.6212C111.188 24.1662 109.686 24.4387 107.943 24.4387H102.448L105.249 21.8807V29.0802H98.953ZM110.13 29.0802L105.542 22.3554H112.211L116.853 29.0802H110.13ZM105.249 22.5664L102.448 19.7446H107.543C108.414 19.7446 109.054 19.5512 109.463 19.1644C109.89 18.7776 110.104 18.2502 110.104 17.5821C110.104 16.914 109.89 16.3866 109.463 15.9998C109.054 15.613 108.414 15.4196 107.543 15.4196H102.448L105.249 12.5978V22.5664Z" fill="#58C19B"/>
<path d="M59.6265 43.5824V10.85H68.0917V43.5824H59.6265Z" fill="#0E2B4C"/>
<path fill-rule="evenodd" clip-rule="evenodd" d="M45.9072 26.7751C45.1052 26.0398 43.8132 25.6722 42.031 25.6722C40.8726 25.6722 39.6994 25.8634 38.5113 26.2457C37.3232 26.5986 36.3134 27.0986 35.4817 27.7456L32.6303 22.0549C33.9966 21.1726 35.6302 20.4962 37.5311 20.0257C39.4618 19.5257 41.3776 19.2757 43.2785 19.2757C47.1992 19.2757 50.2289 20.1727 52.3674 21.9667C54.5357 23.7312 55.6198 26.5104 55.6198 30.3042V43.5824H47.7339V40.4904C47.2447 41.4205 46.5616 42.1718 45.6844 42.7442C44.4072 43.5677 42.7142 43.9794 40.6053 43.9794C38.6747 43.9794 37.0411 43.6559 35.7045 43.0089C34.3679 42.3619 33.3431 41.4797 32.6303 40.3621C31.9471 39.2446 31.6055 37.9947 31.6055 36.6124C31.6055 35.142 31.9768 33.8774 32.7194 32.8187C33.4916 31.7305 34.6649 30.9071 36.2391 30.3483C37.8133 29.7601 39.8479 29.466 42.3429 29.466H47.1444C47.0757 28.3138 46.6633 27.4168 45.9072 26.7751ZM40.6053 34.495C41.1697 34.0538 42.135 33.8333 43.5013 33.8333H47.1548L47.1547 33.9215V35.9066C46.7983 36.8477 46.2339 37.5535 45.4617 38.0241C44.7191 38.4652 43.8874 38.6858 42.9667 38.6858C41.9865 38.6858 41.2142 38.4652 40.6499 38.0241C40.0855 37.5829 39.8034 36.9948 39.8034 36.2595C39.8034 35.5243 40.0707 34.9361 40.6053 34.495Z" fill="#0E2B4C"/>
<path fill-rule="evenodd" clip-rule="evenodd" d="M84.9095 43.9794C82.0581 43.9794 79.5631 43.4501 77.4246 42.3913C75.3157 41.3032 73.6672 39.8327 72.4791 37.98C71.3207 36.0978 70.7416 33.9656 70.7416 31.5835C70.7416 29.2013 71.3059 27.0839 72.4346 25.2311C73.593 23.3489 75.182 21.8931 77.2018 20.8638C79.2216 19.8051 81.4938 19.2757 84.0185 19.2757C86.3946 19.2757 88.5629 19.761 90.5233 20.7315C92.4836 21.6726 94.043 23.0695 95.2014 24.9223C96.3598 26.7751 96.939 29.0249 96.939 31.6717C96.939 31.9658 96.9241 32.304 96.8944 32.6863C96.8647 33.0686 96.835 33.4215 96.8053 33.745H79.2598C79.3763 34.172 79.5368 34.569 79.7413 34.9361C80.2463 35.789 80.9591 36.4507 81.8799 36.9212C82.8007 37.3624 83.8997 37.5829 85.1769 37.5829C86.365 37.5829 87.3748 37.4212 88.2065 37.0977C89.0679 36.7448 89.9144 36.2154 90.746 35.5096L95.2014 40.0974C94.043 41.362 92.6173 42.3325 90.9242 43.0089C89.2312 43.6559 87.2263 43.9794 84.9095 43.9794ZM86.6917 25.8928C87.4639 26.3339 88.058 26.9515 88.4738 27.7456C88.7411 28.222 88.9229 28.7514 89.0191 29.3337H79.136C79.237 28.7687 79.4091 28.2541 79.6522 27.7897C80.0681 26.9662 80.6473 26.3339 81.3898 25.8928C82.1621 25.4517 83.0531 25.2311 84.063 25.2311C85.0729 25.2311 85.9491 25.4517 86.6917 25.8928Z" fill="#0E2B4C"/>
<path d="M20.3459 39.5764C20.3459 41.129 20.4741 42.3039 20.7305 43.1012C21.0296 43.8565 21.6278 44.36 22.525 44.6117C23.4651 44.8635 24.8751 45.0104 26.7551 45.0523V46.5H4.32299V45.0523C6.24574 45.0104 7.65576 44.8635 8.55304 44.6117C9.49306 44.36 10.0912 43.8565 10.3476 43.1012C10.604 42.3039 10.7322 41.129 10.7322 39.5764V7.99003L4.83572 11.6406L3.4898 9.62651L17.7182 0.5H20.7946C20.6237 1.29726 20.4955 2.09452 20.41 2.89178C20.3673 3.68903 20.3459 4.48629 20.3459 5.28355V39.5764Z" fill="#58C19B"/>
<path d="M23.2225 12.4311C23.2972 12.7753 23.5991 13.4922 24.2099 13.6067C24.9734 13.7498 26.3009 14.3896 26.3996 15.1118C26.4984 15.8341 25.2567 17.6344 22.9025 17.9491C22.0873 18.058 21.2022 18.0195 20.3221 17.9016L20.3221 25.2493C28.1289 27.4103 29.0274 31.9105 29.2814 33.7672C29.5378 35.6426 29.5952 42.3999 21.8444 44.3105C21.3033 44.4439 20.7242 44.5537 20.1044 44.6365C15.9951 45.1857 12.8331 44.3942 10.4577 43.0987C8.22127 41.879 2.56855 37.8676 1.59223 36.4526C0.616035 35.0376 1.62666 34.2967 3.67403 35.2421C4.42405 35.635 9.47573 38.4036 10.8531 38.8742C13.1277 39.6514 15.9637 40.2868 18.3906 39.9624C19.1313 39.8634 19.7708 39.6948 20.3221 39.4761C23.3958 38.2566 23.7292 35.4793 23.5989 34.5267C23.5009 33.81 23.2892 32.2615 20.3221 31.2233L20.3221 25.2493L20.3221 17.9016C18.7801 17.695 17.2528 17.2448 16.1411 16.917L15.8904 16.8432C14.4077 16.4083 12.5363 16.2674 10.8531 16.3959C10.5811 16.4167 10.314 16.4444 10.0543 16.4792C8.18721 16.7287 6.50006 17.6896 6.73052 19.3749C6.88118 20.4767 7.64037 21.6368 10.8531 22.8369L10.8531 28.8157C10.1286 28.6323 9.52926 28.479 9.11809 28.3718C6.4608 27.6787 1.93034 25.3772 1.21043 20.1127C0.310534 13.532 7.31152 11.534 9.50333 11.2411C10.0071 11.1737 10.4482 11.1277 10.8531 11.0975C11.9238 11.0177 12.7411 11.0483 13.792 11.0878L13.792 11.0878L13.7927 11.0878C14.0735 11.0983 14.3709 11.1095 14.6944 11.1193C15.5121 11.1442 16.0927 10.9801 16.6941 10.8102C17.4174 10.6057 18.1707 10.3928 19.4027 10.4901C19.7225 10.5153 20.0299 10.5626 20.3221 10.6277C21.7859 10.9541 22.8687 11.7291 23.2225 12.4311Z" fill="#0E2B4C"/>
</g>
<defs>
<clipPath id="clip0_165_139">
<rect width="133" height="46" fill="white" transform="translate(0 0.5)"/>
</clipPath>
</defs>
</svg>
